<svg id="meta_logo_svg_black" xmlns="http://www.w3.org/2000/svg" width="725.459" height="146.163" viewBox="0 0 725.459 146.163">
  <path id="Logo0" d="M23.769,96.391c0,8.4,1.844,14.854,4.255,18.756a14.511,14.511,0,0,0,12.68,7.278c6.2,0,11.869-1.538,22.8-16.652C72.255,93.659,82.571,76.655,89.512,66l11.754-18.06C109.431,35.393,118.882,21.45,129.718,12c8.846-7.714,18.389-12,27.993-12,16.124,0,31.482,9.344,43.237,26.868,12.864,19.193,19.108,43.367,19.108,68.314,0,14.831-2.923,25.728-7.9,34.337-4.806,8.326-14.172,16.644-29.929,16.644V122.425c13.491,0,16.859-12.4,16.859-26.585,0-20.218-4.714-42.655-15.1-58.687-7.369-11.372-16.92-18.32-27.427-18.32-11.364,0-20.509,8.571-30.786,23.853C120.313,50.805,114.7,60.7,108.406,71.865l-6.933,12.282c-13.928,24.695-17.455,30.319-24.419,39.6C64.848,140,54.425,146.163,40.7,146.163c-16.277,0-26.57-7.048-32.944-17.67C2.556,119.838,0,108.482,0,95.542Z" transform="translate(0 0)"/>
  <path id="Logo1" d="M24.49,28.544C35.387,11.747,51.113,0,69.15,0,79.6,0,89.98,3.092,100.824,11.946c11.861,9.68,24.5,25.621,40.275,51.892l5.655,9.428c13.652,22.743,21.419,34.444,25.965,39.961,5.847,7.086,9.941,9.2,15.259,9.2,13.491,0,16.859-12.4,16.859-26.585l20.968-.658c0,14.831-2.923,25.728-7.9,34.337-4.806,8.326-14.172,16.644-29.929,16.644-9.8,0-18.473-2.127-28.069-11.18-7.377-6.948-16-19.292-22.636-30.388L117.537,71.628c-9.9-16.545-18.986-28.881-24.243-34.467C87.639,31.153,80.369,23.9,68.767,23.9c-9.39,0-17.364,6.589-24.037,16.667Z" transform="translate(-5.749)"/>
  <path id="Logo2" d="M63.019,23.9c-9.39,0-17.364,6.589-24.037,16.667C29.546,54.807,23.769,76.02,23.769,96.391c0,8.4,1.844,14.854,4.255,18.756L7.76,128.493C2.556,119.838,0,108.482,0,95.542c0-23.532,6.459-48.058,18.741-67C29.638,11.747,45.364,0,63.4,0Z" transform="translate(0 0)"/>
  <path id="Text" d="M347.94,6.04h27.5l46.749,84.576L468.942,6.04h26.9V145.01h-22.43V38.5l-41,73.755H411.364L370.37,38.5V145.01H347.94ZM566.121,57.855c-16.086,0-25.774,12.106-28.092,27.1h54.593c-1.125-15.443-10.032-27.1-26.5-27.1ZM515.79,93.493c0-31.544,20.386-54.5,50.721-54.5,29.837,0,47.652,22.667,47.652,56.185v6.16H538.029c2.7,16.308,13.522,27.3,30.97,27.3,13.92,0,22.621-4.247,30.87-12.014l11.915,14.593c-11.226,10.323-25.506,16.277-43.581,16.277-32.837,0-52.412-23.945-52.412-54Zm125.57-33.648H620.714V41.479h20.646V11.106H663V41.479H694.37V59.845H663V106.4c0,15.894,5.081,21.542,17.57,21.542a72.659,72.659,0,0,0,13.8-1.293v18.167A64.449,64.449,0,0,1,676.4,147.29q-35.045,0-35.041-38.316ZM785.5,77.706c-4.347-10.974-14.042-19.055-28.291-19.055-18.519,0-30.373,13.139-30.373,34.543,0,20.868,10.912,34.643,29.485,34.643,14.6,0,25.024-8.494,29.179-19.062Zm21.641,67.3H785.894V130.516c-5.938,8.533-16.744,16.973-34.245,16.973-28.146,0-46.956-23.562-46.956-54.295,0-31.023,19.261-54.2,48.15-54.2,14.28,0,25.483,5.709,33.051,15.787v-13.3h21.243Z" transform="translate(-81.678 -1.418)"/>
</svg>
