<svg width="6673" height="2887" viewBox="0 0 6673 2887" fill="none" xmlns="http://www.w3.org/2000/svg">
<path d="M1138.43 130.576L2.13643 2241.12C0.308674 2244.52 2.10108 2248.63 5.82013 2249.56L1882.88 2722.99C1885.61 2723.68 1888.51 2722.39 1889.85 2719.9L3026.14 609.356C3027.97 605.957 3026.18 601.846 3022.46 600.908L1145.4 127.483C1142.67 126.795 1139.77 128.081 1138.43 130.576Z" fill="#FAF3F0"/>
<path d="M3095.89 166.923L1959.6 2277.46C1957.77 2280.86 1959.56 2284.97 1963.28 2285.91L3840.34 2759.34C3843.07 2760.02 3845.97 2758.74 3847.31 2756.24L4983.61 645.703C4985.43 642.303 4983.64 638.193 4979.92 637.255L3102.86 163.83C3100.13 163.141 3097.24 164.428 3095.89 166.923Z" fill="#FAF3F0"/>
<path d="M4782.92 166.923L3646.62 2277.46C3644.79 2280.86 3646.59 2284.97 3650.3 2285.91L5527.36 2759.34C5530.09 2760.02 5532.99 2758.74 5534.33 2756.24L6670.63 645.703C6672.46 642.303 6670.67 638.193 6666.95 637.255L4789.89 163.83C4787.16 163.141 4784.26 164.428 4782.92 166.923Z" fill="#FAF3F0"/>
</svg>
