<svg width="6356" height="2736" viewBox="0 0 6356 2736" fill="none" xmlns="http://www.w3.org/2000/svg">
<path d="M3173.92 1.60135C3176.22 -0.533761 3179.78 -0.533732 3182.08 1.60138L4642.85 1356.32C4645.41 1358.7 4645.41 1362.75 4642.85 1365.12L3182.08 2719.85C3179.78 2721.98 3176.22 2721.98 3173.92 2719.85L1713.15 1365.12C1710.59 1362.75 1710.59 1358.7 1713.15 1356.32L3173.92 1.60135Z" fill="#EBD7FE"/>
<path d="M1462.69 15.7751C1464.99 13.64 1468.55 13.64 1470.85 15.7751L2931.62 1370.5C2934.18 1372.87 2934.18 1376.92 2931.62 1379.3L1470.85 2734.02C1468.55 2736.15 1464.99 2736.15 1462.69 2734.02L1.91935 1379.3C-0.639782 1376.92 -0.639784 1372.87 1.91935 1370.5L1462.69 15.7751Z" fill="#EBD7FE"/>
<path d="M4885.15 15.7751C4887.45 13.64 4891.01 13.64 4893.31 15.7751L6354.08 1370.5C6356.64 1372.87 6356.64 1376.92 6354.08 1379.3L4893.31 2734.02C4891.01 2736.15 4887.45 2736.15 4885.15 2734.02L3424.38 1379.3C3421.82 1376.92 3421.82 1372.87 3424.38 1370.5L4885.15 15.7751Z" fill="#EBD7FE"/>
</svg>
